<?xml version="1.0" encoding="UTF-8"?><svg id="Layer_2" xmlns="http://www.w3.org/2000/svg" viewBox="0 0 20 20"><defs><style>.cls-1{fill:#e6e7e8;}</style></defs><g id="Layer_1-2"><path class="cls-1" d="M0,0V20H20V0H0ZM7.06,2.89c.31,.09,.6,.21,.88,.36,.61,.35,1.11,.85,1.46,1.46,.16,.27,.28,.57,.36,.88,.09,.33,.14,.67,.14,1.03s-.05,.7-.14,1.03c-.09,.31-.21,.6-.36,.88-.35,.61-.85,1.11-1.46,1.46-.27,.16-.57,.28-.88,.36-.33,.09-.67,.14-1.03,.14s-.7-.05-1.03-.14c-.31-.08-.6-.21-.88-.36-.61-.35-1.11-.85-1.46-1.46-.16-.27-.28-.57-.36-.88-.09-.33-.14-.67-.14-1.03s.05-.7,.14-1.03c.09-.31,.21-.6,.36-.88,.35-.61,.85-1.11,1.46-1.46,.27-.16,.57-.28,.88-.36,.33-.09,.67-.14,1.03-.14s.7,.05,1.03,.14ZM1.06,1.06h3.94v.37c-.69,.14-1.34,.41-1.91,.79l-.79-.79-1.24,1.24V1.06Zm0,2.05l.57,.57c-.23,.35-.42,.72-.57,1.12v-1.69Zm0,5.33c.15,.4,.34,.77,.57,1.12l-.57,.57v-1.69Zm17.89,7.13l-.23-.23c.08-.12,.16-.25,.23-.39v.62Zm0-4.84c-.07-.13-.15-.26-.23-.39l.23-.23v.62Zm0-1.5l-.8-.8-.67,.67c-.48-.32-1.03-.56-1.62-.67v-.95h-1.75v.95c-.59,.12-1.14,.35-1.62,.67l-.67-.67-1.24,1.24,.67,.67c-.32,.48-.56,1.03-.67,1.62h-.95v1.75h.95c.12,.59,.35,1.14,.67,1.62l-.67,.67,1.24,1.24,.67-.67c.48,.32,1.03,.56,1.62,.67v.95h1.75v-.95c.59-.12,1.14-.35,1.62-.67l.67,.67,.8-.8v2.5H1.06V10.57l1.24,1.24,.79-.79c.57,.38,1.21,.65,1.91,.79v1.11h2.06v-1.11c.69-.14,1.34-.41,1.91-.79l.79,.79,1.46-1.46-.79-.79c.38-.57,.65-1.21,.79-1.91h1.11v-2.06h-1.11c-.14-.69-.41-1.34-.79-1.91l.79-.79-1.46-1.46-.79,.79c-.57-.38-1.21-.65-1.91-.79v-.37h11.88V9.23Zm-.68,3.61c0,.3-.04,.6-.12,.88-.07,.26-.18,.51-.31,.74-.29,.52-.72,.95-1.24,1.24-.23,.13-.48,.24-.74,.31-.28,.08-.57,.12-.88,.12s-.6-.04-.88-.12c-.26-.07-.51-.18-.74-.31-.52-.29-.95-.72-1.24-1.24-.13-.23-.24-.48-.31-.74-.08-.28-.12-.57-.12-.88s.04-.6,.12-.88c.07-.26,.18-.51,.31-.74,.29-.52,.72-.95,1.24-1.24,.23-.13,.48-.24,.74-.31,.28-.08,.57-.12,.88-.12s.6,.04,.88,.12c.26,.07,.51,.18,.74,.31,.52,.29,.95,.72,1.24,1.24,.13,.23,.24,.48,.31,.74,.08,.28,.12,.57,.12,.88Z"/></g></svg>