<?xml version="1.0" encoding="UTF-8"?><svg id="a" xmlns="http://www.w3.org/2000/svg" viewBox="0 0 16 16"><defs><style>.d{fill:#001011;opacity:.58;}.e{fill:#e6e7e8;}</style></defs><path class="d" d="M15.64,8.28c-.03-.41-.15-.81-.2-1.23-.03-.24-.05-.49-.08-.73l-.44,.44c-.5-.34-1.09-.58-1.71-.7v-1h-1.84v-1.04h-1.16c-.15-.72-.44-1.4-.83-2.01l.82-.82-.7-.71c-.18,.1-.38,.18-.6,.18-.68,.03-1.33-.13-1.99-.27-.56-.13-1-.04-1.55,.05-.72,.11-1.41,.04-2.13,.06-.68,.02-1.36,.16-2.04,.23-.26,.03-.53,.04-.79,.04,.12,.26,.16,.57,.08,.87-.12,.47-.19,.92-.28,1.38,0,.12,0,.24,0,.35,0,.67,.03,1.33,0,2-.01,.24-.03,.49-.05,.73,.5,.66,.31,1.47,.2,2.25-.03,.2-.06,.4-.09,.6l-.03,.18s-.01,.1-.02,.12c-.02,.15-.04,.3-.04,.45,0,.02,0,.04,0,.06,0,.05,0,.1,0,.16l.63,.63,.83-.83c.59,.41,1.27,.69,2.01,.83v1.17h2.17v-1.17c.28-.05,.56-.13,.82-.23v1.28h1c.12,.62,.37,1.19,.71,1.7l-.71,.71,1.3,1.3,.71-.71c.5,.34,1.09,.59,1.7,.71v.13c.38-.07,.76-.13,1.14-.1,.23,.02,.47,.05,.7,.08v-.11c.62-.12,1.21-.37,1.71-.71l.44,.45c-.01-.64-.11-1.28-.07-1.93,.05-.84,.12-1.68,.2-2.51,.07-.76,.22-1.59,.16-2.36Z"/><g id="b"><g id="c"><path class="e" d="M0,0V16H16V0H0ZM5.65,2.31c.25,.07,.48,.17,.7,.29,.49,.28,.89,.68,1.17,1.17,.12,.22,.22,.45,.29,.7,.07,.26,.11,.54,.11,.83s-.04,.56-.11,.83c-.07,.25-.17,.48-.29,.7-.28,.49-.68,.89-1.17,1.17-.22,.12-.45,.22-.7,.29-.26,.07-.54,.11-.83,.11s-.56-.04-.83-.11c-.25-.07-.48-.17-.7-.29-.49-.28-.89-.68-1.17-1.17-.12-.22-.22-.45-.29-.7-.07-.26-.11-.54-.11-.83s.04-.56,.11-.83c.07-.25,.17-.48,.29-.7,.28-.49,.68-.89,1.17-1.17,.22-.12,.45-.22,.7-.29,.26-.07,.54-.11,.83-.11s.56,.04,.83,.11ZM.85,.85H4v.3c-.56,.11-1.07,.33-1.53,.63l-.63-.63-.99,.99V.85Zm0,1.64l.46,.46c-.19,.28-.34,.58-.46,.9v-1.35ZM.85,6.75c.12,.32,.27,.62,.46,.9l-.46,.46v-1.35H.85Zm14.31,5.71l-.19-.19c.07-.1,.13-.2,.19-.31v.5Zm0-3.87c-.06-.11-.12-.21-.19-.31l.19-.19v.5Zm0-1.2l-.64-.64-.54,.54c-.39-.26-.83-.44-1.3-.54v-.76h-1.4v.76c-.47,.09-.91,.28-1.3,.54l-.54-.54-.99,.99,.54,.54c-.26,.39-.44,.83-.54,1.3h-.76v1.4h.76c.09,.47,.28,.91,.54,1.3l-.54,.54,.99,.99,.54-.54c.39,.26,.83,.44,1.3,.54v.76h1.4v-.76c.47-.09,.91-.28,1.3-.54l.54,.54,.64-.64v2H.85v-6.7l.99,.99,.63-.63c.45,.3,.97,.52,1.53,.63v.89h1.65v-.89c.56-.11,1.07-.33,1.53-.63l.63,.63,1.17-1.17-.63-.63c.3-.45,.52-.97,.63-1.53h.89v-1.65h-.89c-.11-.56-.33-1.07-.63-1.53l.63-.63-1.17-1.17-.63,.63c-.45-.3-.97-.52-1.53-.63v-.3H15.15V7.39h0Zm-.55,2.89c0,.24-.03,.48-.09,.7-.06,.21-.14,.41-.25,.6-.23,.41-.58,.76-.99,.99-.19,.11-.39,.19-.6,.25-.22,.06-.46,.09-.7,.09s-.48-.03-.7-.09c-.21-.06-.41-.14-.6-.25-.41-.23-.76-.58-.99-.99-.11-.19-.19-.39-.25-.6-.06-.22-.09-.46-.09-.7s.03-.48,.09-.7c.06-.21,.14-.41,.25-.6,.23-.41,.58-.76,.99-.99,.19-.11,.39-.19,.6-.25,.22-.06,.46-.09,.7-.09s.48,.03,.7,.09c.21,.06,.41,.14,.6,.25,.41,.23,.76,.58,.99,.99,.11,.19,.19,.39,.25,.6,.06,.22,.09,.46,.09,.7h0Z"/></g></g></svg>