<?xml version="1.0" encoding="UTF-8"?><svg id="Layer_2" xmlns="http://www.w3.org/2000/svg" viewBox="0 0 20 20"><defs><style>.cls-1{fill:#e6e7e8;}</style></defs><g id="Layer_1-2"><path class="cls-1" d="M0,0V20H20V0H0ZM1.06,18.94v-3.66c.89,1.51,2.15,2.77,3.66,3.66H1.06Zm10.64,0H7.03c-2.81-.93-5.04-3.16-5.97-5.97V7.03c.17-.5,.37-.98,.62-1.44,.38-.72,1.13-1.64,1.68-2.23L1.02,1.06H7.39V7.4l-1.62-1.62-.52,.62c-.36,.47-.65,1-.85,1.56-.23,.64-.36,1.32-.36,2.04,0,3.29,2.67,5.96,5.96,5.96,.59,0,1.16-.09,1.7-.25v3.23ZM12.97,1.06c2.81,.93,5.03,3.16,5.97,5.97v5.95c-.21,.65-.5,1.26-.84,1.84-.03,.04-.05,.09-.08,.13-.32,.53-.93,1.29-1.35,1.74l2.27,2.26h-6.34v-6.35l1.6,1.62,.4-.44c.13-.15,.25-.31,.36-.48,.63-.94,.99-2.08,.99-3.29,0-3.29-2.67-5.96-5.96-5.96-.59,0-1.16,.09-1.7,.25V1.07h4.67Zm5.97,3.65c-.89-1.51-2.15-2.77-3.66-3.66h3.66v3.66Z"/></g></svg>