<?xml version="1.0" encoding="utf-8"?>
<!-- Generator: Adobe Illustrator 26.3.1, SVG Export Plug-In . SVG Version: 6.00 Build 0)  -->
<svg version="1.1" id="Layer_1" xmlns="http://www.w3.org/2000/svg" xmlns:xlink="http://www.w3.org/1999/xlink" x="0px" y="0px"
	 viewBox="0 0 20 20" style="enable-background:new 0 0 20 20;" xml:space="preserve">
<style type="text/css">
	.st0{fill:#E6E7E8;}
</style>
<path class="st0" d="M0,65.5v20h20v-20H0z M1.1,84.4v-8.6l10.5,8.6H1.1z M1.1,75.2v-8.6h10.5L1.1,75.2z M13.4,84.4h-1.1V66.6h1.1
	V84.4z M18.9,84.4h-2.3V66.6h2.3V84.4z"/>
<path class="st0" d="M0,123l0,20h20v-20H0z M8.5,141.9l10.5-8.6v8.6H8.5z M8.5,124h10.5v8.6L8.5,124z M6.6,124h1.1v17.9H6.6V124z
	 M1.1,124h2.3v17.9H1.1V124z"/>
<path class="st0" d="M0,43.7v20h20v-20H0z M1.1,44.7h5.3v17.9H1.1V44.7z M11.4,62.6H8.6V44.7h2.8V62.6z M18.9,62.6h-5.3V44.7h5.3
	V62.6z"/>
<path class="st0" d="M0-82.3v20h20v-20H0z M5.7-63.4H1.1v-17.9h4.5V-63.4z M18.9-63.4H6.4L18.9-72V-63.4z M18.9-72.6L6.4-81.2h12.6
	V-72.6z"/>
<g>
	<path class="st0" d="M0-51.9v20h20v-20H0z M18.9-33H1.1v-17.9h17.9V-33z"/>
	<rect x="3.3" y="-48.5" class="st0" width="13.2" height="13"/>
</g>
<path class="st0" d="M0,152.6v20h20v-20H0z M7.1,155.4c0.3,0.1,0.6,0.2,0.9,0.4c0.6,0.3,1.1,0.9,1.5,1.5c0.2,0.3,0.3,0.6,0.4,0.9
	c0.1,0.3,0.1,0.7,0.1,1c0,0.4,0,0.7-0.1,1c-0.1,0.3-0.2,0.6-0.4,0.9c-0.3,0.6-0.9,1.1-1.5,1.5c-0.3,0.2-0.6,0.3-0.9,0.4
	c-0.3,0.1-0.7,0.1-1,0.1c-0.4,0-0.7,0-1-0.1c-0.3-0.1-0.6-0.2-0.9-0.4c-0.6-0.3-1.1-0.9-1.5-1.5c-0.2-0.3-0.3-0.6-0.4-0.9
	c-0.1-0.3-0.1-0.7-0.1-1c0-0.4,0-0.7,0.1-1c0.1-0.3,0.2-0.6,0.4-0.9c0.3-0.6,0.9-1.1,1.5-1.5c0.3-0.2,0.6-0.3,0.9-0.4
	c0.3-0.1,0.7-0.1,1-0.1C6.4,155.3,6.7,155.4,7.1,155.4z M1.1,153.6H5v0.4c-0.7,0.1-1.3,0.4-1.9,0.8L2.3,154l-1.2,1.2V153.6z
	 M1.1,155.7l0.6,0.6c-0.2,0.3-0.4,0.7-0.6,1.1V155.7z M1.1,161c0.1,0.4,0.3,0.8,0.6,1.1l-0.6,0.6V161z M18.9,168.1l-0.2-0.2
	c0.1-0.1,0.2-0.3,0.2-0.4V168.1z M18.9,163.3c-0.1-0.1-0.1-0.3-0.2-0.4l0.2-0.2V163.3z M18.9,161.8l-0.8-0.8l-0.7,0.7
	c-0.5-0.3-1-0.6-1.6-0.7V160h-1.8v0.9c-0.6,0.1-1.1,0.3-1.6,0.7l-0.7-0.7l-1.2,1.2l0.7,0.7c-0.3,0.5-0.6,1-0.7,1.6H9.6v1.8h0.9
	c0.1,0.6,0.3,1.1,0.7,1.6l-0.7,0.7l1.2,1.2l0.7-0.7c0.5,0.3,1,0.6,1.6,0.7v0.9h1.8v-0.9c0.6-0.1,1.1-0.3,1.6-0.7l0.7,0.7l0.8-0.8
	v2.5H1.1v-8.4l1.2,1.2l0.8-0.8c0.6,0.4,1.2,0.7,1.9,0.8v1.1h2.1v-1.1c0.7-0.1,1.3-0.4,1.9-0.8l0.8,0.8l1.5-1.5l-0.8-0.8
	c0.4-0.6,0.7-1.2,0.8-1.9h1.1v-2.1h-1.1c-0.1-0.7-0.4-1.3-0.8-1.9l0.8-0.8L9.8,154L9,154.8c-0.6-0.4-1.2-0.7-1.9-0.8v-0.4h11.9
	V161.8z M18.3,165.4c0,0.3,0,0.6-0.1,0.9c-0.1,0.3-0.2,0.5-0.3,0.7c-0.3,0.5-0.7,0.9-1.2,1.2c-0.2,0.1-0.5,0.2-0.7,0.3
	c-0.3,0.1-0.6,0.1-0.9,0.1c-0.3,0-0.6,0-0.9-0.1c-0.3-0.1-0.5-0.2-0.7-0.3c-0.5-0.3-0.9-0.7-1.2-1.2c-0.1-0.2-0.2-0.5-0.3-0.7
	c-0.1-0.3-0.1-0.6-0.1-0.9c0-0.3,0-0.6,0.1-0.9c0.1-0.3,0.2-0.5,0.3-0.7c0.3-0.5,0.7-0.9,1.2-1.2c0.2-0.1,0.5-0.2,0.7-0.3
	c0.3-0.1,0.6-0.1,0.9-0.1c0.3,0,0.6,0,0.9,0.1c0.3,0.1,0.5,0.2,0.7,0.3c0.5,0.3,0.9,0.7,1.2,1.2c0.1,0.2,0.2,0.5,0.3,0.7
	C18.2,164.8,18.3,165.1,18.3,165.4z"/>
<path class="st0" d="M-0.1,0v20h20V0H-0.1z M1,1.1h17.9v3.1l-1.9-1.9L6.1,13L2.9,9.8L1,11.7V1.1z M18.8,18.9H1v-6.1L6.1,18L18.8,5.3
	V18.9z"/>
<path class="st0" d="M0,94.1v20h20v-20H0z M11.6,112.1H2v-9.5h9.5V112.1z M18.9,113h-4v-11.4l1.4-1.4l1.9,1.9v-6.3h-6.3l2,1.9
	l-1.4,1.4H1.1v-4.1h17.9V113z"/>
<path class="st0" d="M-103.6,0v20h20V0H-103.6z M-102.6,18.9v-3.7c0.9,1.5,2.2,2.8,3.7,3.7H-102.6z M-91.9,18.9h-4.7
	c-2.8-0.9-5-3.2-6-6V7c0.2-0.5,0.4-1,0.6-1.4c0.4-0.7,1.1-1.6,1.7-2.2l-2.3-2.3l6.4,0v6.3l-1.6-1.6l-0.5,0.6c-0.4,0.5-0.6,1-0.9,1.6
	c-0.2,0.6-0.4,1.3-0.4,2c0,3.3,2.7,6,6,6c0.6,0,1.2-0.1,1.7-0.2V18.9z M-90.7,1.1c2.8,0.9,5,3.2,6,6V13c-0.2,0.6-0.5,1.3-0.8,1.8
	c0,0-0.1,0.1-0.1,0.1c-0.3,0.5-0.9,1.3-1.4,1.7l2.3,2.3l-6.3,0v-6.4l1.6,1.6l0.4-0.4c0.1-0.2,0.2-0.3,0.4-0.5c0.6-0.9,1-2.1,1-3.3
	c0-3.3-2.7-6-6-6c-0.6,0-1.2,0.1-1.7,0.2V1.1L-90.7,1.1z M-84.7,4.7c-0.9-1.5-2.2-2.8-3.7-3.7h3.7V4.7z"/>
<path class="st0" d="M0,182.2v20h20v-20H0z M11.6,183.2h7.4v7.4h-7.4V183.2z M8.4,201.1H1.1v-7.4h7.4V201.1z M8.4,190.6H1.1v-7.4
	h7.4V190.6z M18.9,201.1h-7.4v-7.4h7.4V201.1z"/>
</svg>
